<?xml version="1.0" standalone="no"?>
<!DOCTYPE svg PUBLIC "-//W3C//DTD SVG 20010904//EN"
 "http://www.w3.org/TR/2001/REC-SVG-20010904/DTD/svg10.dtd">
<svg version="1.0" xmlns="http://www.w3.org/2000/svg"
 width="114.000000pt" height="60.000000pt" viewBox="0 0 114.000000 60.000000"
 preserveAspectRatio="xMidYMid meet">

<g transform="translate(0.000000,60.000000) scale(0.100000,-0.100000)"
fill="#000000" stroke="none">
<path d="M2 545 c3 -4 75 -19 160 -35 l153 -29 -105 4 c-139 5 -111 -1 90 -20
234 -22 240 -23 240 -46 0 -17 -3 -18 -20 -9 -14 7 -20 7 -20 0 0 -5 -13 -10
-29 -10 -15 0 -39 -9 -53 -19 -13 -11 -37 -21 -53 -24 -17 -2 9 -5 58 -6 l87
-1 0 -33 0 -33 -44 10 c-40 9 -43 12 -35 31 8 17 7 16 -7 -2 -22 -31 -47 -31
-39 0 l6 22 -17 -22 c-9 -13 -27 -23 -40 -23 -29 0 -43 -25 -42 -78 0 -35 4
-43 23 -48 20 -5 22 -10 18 -45 -5 -35 -3 -39 15 -39 24 0 45 51 24 58 -7 2
-12 7 -12 12 0 9 51 3 86 -10 12 -5 49 -12 82 -16 50 -5 62 -10 71 -30 13 -29
41 -32 41 -4 0 13 7 20 20 20 11 0 20 -6 20 -12 0 -10 2 -10 8 0 6 8 19 10 40
6 38 -8 41 -12 46 -54 4 -33 12 -47 22 -37 4 3 1 21 -5 39 -17 47 -1 54 135
63 l115 7 -3 27 c-3 26 -5 26 -86 29 l-83 3 5 27 c2 15 5 29 6 32 1 3 1 13 0
23 -1 10 6 30 15 43 15 24 15 27 -1 45 -9 10 -21 16 -25 13 -15 -9 -10 9 11
40 11 19 30 31 47 34 37 5 43 12 10 12 -15 0 -27 5 -27 10 0 6 26 10 58 11 55
0 156 15 120 18 -10 0 -116 -6 -236 -14 -147 -11 -233 -13 -261 -6 -22 5 -56
6 -74 1 -22 -4 -101 4 -232 25 -282 46 -290 47 -283 40z m866 -82 c-16 -2 -40
-2 -55 0 -16 2 -3 4 27 4 30 0 43 -2 28 -4z m2 -38 c0 -8 -11 -26 -25 -41 -14
-15 -25 -34 -25 -43 0 -9 -11 -34 -25 -56 -25 -42 -31 -65 -16 -65 5 0 14 15
21 33 28 77 31 80 42 69 8 -8 4 -28 -14 -72 l-25 -62 -36 32 c-35 30 -48 60
-27 60 5 0 14 9 20 20 9 17 4 24 -42 55 -31 20 -65 35 -83 35 -49 0 -75 11
-75 31 0 23 20 25 183 21 100 -2 127 -6 127 -17z m-316 -101 c11 -28 6 -54 -8
-54 -21 0 -28 15 -20 45 7 28 19 33 28 9z m43 -66 c-2 -13 -4 -5 -4 17 -1 22
1 32 4 23 2 -10 2 -28 0 -40z m20 -5 c-3 -10 -5 -2 -5 17 0 19 2 27 5 18 2
-10 2 -26 0 -35z m43 1 c0 -21 -4 -33 -10 -29 -5 3 -10 22 -10 41 0 21 4 33
10 29 6 -3 10 -22 10 -41z m30 -10 c0 -21 -4 -33 -10 -29 -5 3 -10 22 -10 41
0 21 4 33 10 29 6 -3 10 -22 10 -41z"/>
</g>
</svg>
